<?xml version="1.0" standalone="no"?>
<!DOCTYPE svg PUBLIC "-//W3C//DTD SVG 20010904//EN"
 "http://www.w3.org/TR/2001/REC-SVG-20010904/DTD/svg10.dtd">
<svg version="1.0" xmlns="http://www.w3.org/2000/svg"
 width="272.000000pt" height="272.000000pt" viewBox="0 0 272.000000 272.000000"
 preserveAspectRatio="xMidYMid meet">
<metadata>
Created by potrace 1.11, written by Peter Selinger 2001-2013
</metadata>
<g transform="translate(0.000000,272.000000) scale(0.100000,-0.100000)"
fill="#000000" stroke="none">
<path d="M1328 2465 c-1 -1 -32 -5 -68 -9 -193 -18 -371 -85 -541 -203 -90
-63 -254 -236 -242 -257 3 -6 2 -8 -2 -3 -27 24 -160 -262 -190 -410 -21 -100
-26 -310 -10 -403 22 -131 122 -381 175 -438 11 -11 20 -26 20 -32 0 -5 4 -10
8 -10 4 0 15 -12 24 -27 25 -43 145 -157 223 -213 81 -58 237 -138 305 -155
14 -3 48 -12 75 -19 136 -37 336 -42 475 -12 14 3 36 7 50 10 113 24 297 112
402 193 62 47 154 134 193 183 84 104 187 300 195 372 0 4 7 25 14 45 7 21 16
60 20 86 4 27 9 59 12 70 7 34 6 207 -1 252 -11 75 -19 112 -39 185 -8 32 -11
56 -5 58 5 2 7 8 3 13 -3 5 5 14 18 20 13 5 28 20 33 32 6 12 13 21 18 19 9
-3 57 47 57 59 0 5 6 9 13 9 6 0 21 14 32 30 11 16 26 30 33 30 6 0 12 4 12 9
0 5 11 19 25 32 13 13 25 27 25 31 0 4 -28 35 -62 70 -35 34 -63 66 -63 70 0
4 -3 7 -6 6 -11 -5 -49 34 -43 44 3 4 2 7 -3 6 -5 -2 -19 7 -33 20 -13 12 -27
22 -31 22 -4 0 -52 -45 -107 -100 -55 -55 -104 -100 -109 -100 -4 0 -19 14
-32 31 -23 28 -60 67 -113 115 -40 37 -186 133 -236 154 -26 12 -62 28 -80 36
-50 23 -212 63 -278 69 -111 10 -162 13 -166 10z"/>
</g>
</svg>
